<svg width="166" height="148" viewBox="0 0 166 148" fill="none" xmlns="http://www.w3.org/2000/svg">
<path d="M148.625 78.7549L82.9999 143.75L17.3749 78.7549C13.0464 74.5428 9.63682 69.4801 7.36099 63.8855C5.08516 58.291 3.99236 52.2858 4.1514 46.2481C4.31044 40.2105 5.71787 34.2711 8.28508 28.8042C10.8523 23.3372 14.5236 18.4609 19.068 14.4825C23.6123 10.5041 28.9311 7.50974 34.6895 5.68792C40.448 3.8661 46.5212 3.25632 52.5269 3.89697C58.5326 4.53763 64.3406 6.41483 69.5851 9.41039C74.8296 12.4059 79.3971 16.455 82.9999 21.3025C86.6184 16.4902 91.1911 12.4765 96.4321 9.51275C101.673 6.54899 107.469 4.69889 113.458 4.07826C119.447 3.45763 125.499 4.07982 131.237 5.90589C136.974 7.73196 142.273 10.7226 146.801 14.6906C151.329 18.6587 154.99 23.5187 157.554 28.9665C160.117 34.4143 161.529 40.3327 161.7 46.3512C161.871 52.3696 160.798 58.3586 158.549 63.9434C156.299 69.5281 152.92 74.5884 148.625 78.8074" stroke="#065B82" stroke-width="7" stroke-linecap="round" stroke-linejoin="round"/>
<path d="M109.25 82.5L126.75 100M82.9999 21.25L54.1862 50.0638C52.5458 51.7046 51.6243 53.9298 51.6243 56.25C51.6243 58.5702 52.5458 60.7954 54.1862 62.4362L58.9374 67.1875C64.9749 73.225 74.7749 73.225 80.8124 67.1875L89.5624 58.4375C94.7839 53.2161 101.866 50.2827 109.25 50.2827C116.634 50.2827 123.716 53.2161 128.937 58.4375L148.625 78.125L82.9999 21.25ZM87.3749 104.375L104.875 121.875L87.3749 104.375Z" stroke="#065B82" stroke-width="7" stroke-linecap="round" stroke-linejoin="round"/>
</svg>
