<svg width="60" height="60" viewBox="0 0 60 60" fill="none" xmlns="http://www.w3.org/2000/svg">
<path d="M39 30.0002C39 32.3871 38.0517 34.6763 36.3639 36.3642C34.6761 38.052 32.3869 39.0002 30 39.0002C27.613 39.0002 25.3238 38.052 23.636 36.3642C21.9482 34.6763 21 32.3871 21 30.0002C21 29.4872 21.0539 28.9862 21.1469 28.5002H18V40.4912C18 41.3252 18.6749 42.0002 19.5089 42.0002H40.494C40.8936 41.9994 41.2767 41.8401 41.559 41.5572C41.8414 41.2743 42 40.8909 42 40.4912V28.5002H38.853C38.946 28.9862 39 29.4872 39 30.0002ZM30 36.0002C30.7881 36 31.5685 35.8446 32.2965 35.5428C33.0246 35.241 33.6861 34.7988 34.2432 34.2413C34.8004 33.6839 35.2423 33.0222 35.5437 32.294C35.8451 31.5658 36.0001 30.7853 36 29.9972C35.9998 29.2091 35.8443 28.4287 35.5425 27.7006C35.2408 26.9726 34.7985 26.3111 34.2411 25.7539C33.6837 25.1968 33.022 24.7549 32.2937 24.4535C31.5655 24.152 30.7851 23.997 29.997 23.9972C28.4053 23.9976 26.8789 24.6303 25.7537 25.7561C24.6285 26.8818 23.9966 28.4085 23.997 30.0002C23.9973 31.5919 24.63 33.1182 25.7558 34.2435C26.8816 35.3687 28.4083 36.0006 30 36.0002ZM37.2 23.7002H40.797C41.0359 23.7002 41.2652 23.6055 41.4344 23.4368C41.6037 23.2681 41.6992 23.0392 41.7 22.8002V19.2032C41.7 18.9637 41.6048 18.734 41.4355 18.5647C41.2661 18.3953 41.0364 18.3002 40.797 18.3002H37.2C36.9605 18.3002 36.7308 18.3953 36.5614 18.5647C36.3921 18.734 36.297 18.9637 36.297 19.2032V22.8002C36.3 23.2952 36.705 23.7002 37.2 23.7002ZM30 1.2002C22.3617 1.2002 15.0363 4.23447 9.63527 9.63552C4.23423 15.0366 1.19995 22.362 1.19995 30.0002C1.19995 37.6384 4.23423 44.9638 9.63527 50.3649C15.0363 55.7659 22.3617 58.8002 30 58.8002C33.782 58.8002 37.5271 58.0553 41.0212 56.6079C44.5154 55.1606 47.6903 53.0392 50.3646 50.3649C53.039 47.6905 55.1603 44.5157 56.6077 41.0215C58.055 37.5273 58.8 33.7823 58.8 30.0002C58.8 26.2181 58.055 22.4731 56.6077 18.9789C55.1603 15.4847 53.039 12.3098 50.3646 9.63552C47.6903 6.96119 44.5154 4.8398 41.0212 3.39246C37.5271 1.94513 33.782 1.2002 30 1.2002ZM45 41.6672C45 43.5002 43.5 45.0002 41.667 45.0002H18.333C16.5 45.0002 15 43.5002 15 41.6672V18.3332C15 16.5002 16.5 15.0002 18.333 15.0002H41.667C43.5 15.0002 45 16.5002 45 18.3332V41.6672Z" fill="#065B82"/>
</svg>
