<svg width="541" height="564" viewBox="0 0 541 564" fill="none" xmlns="http://www.w3.org/2000/svg">
<path d="M473.375 399.537L349.431 376.073C338.125 352.5 338.125 342.255 338.125 329.037C349.431 317.25 371.938 305.573 371.938 293.787C383.244 258.537 383.244 235.073 383.244 235.073C389.055 226.261 405.75 211.61 405.75 188.037C405.75 164.463 383.244 141 383.244 129.323C383.244 35.25 337.28 0 270.5 0C206.573 0 157.756 35.25 157.756 129.213C157.756 141 135.25 164.463 135.25 187.927C135.25 211.39 151.311 226.922 157.756 234.963C157.756 234.963 157.756 258.427 169.062 293.677C169.062 305.463 191.569 317.14 202.875 328.927C202.875 340.713 202.875 352.39 191.569 375.963L67.625 399.537C22.5064 411.213 0 493.5 0 564H541C541 493.5 518.494 411.213 473.375 399.537Z" fill="#CCCCCC"/>
</svg>
