<svg width="148" height="148" viewBox="0 0 148 148" fill="none" xmlns="http://www.w3.org/2000/svg">
<path d="M52.125 100.25C54.9764 103.16 58.3799 105.472 62.1361 107.051C65.8923 108.629 69.9257 109.442 74 109.442C78.0743 109.442 82.1077 108.629 85.8639 107.051C89.6201 105.472 93.0236 103.16 95.875 100.25M4 39V21.5C4 16.8587 5.84374 12.4075 9.12563 9.12563C12.4075 5.84374 16.8587 4 21.5 4H39L4 39ZM4 109V126.5C4 131.141 5.84374 135.592 9.12563 138.874C12.4075 142.156 16.8587 144 21.5 144H39L4 109ZM109 4H126.5C131.141 4 135.592 5.84374 138.874 9.12563C142.156 12.4075 144 16.8587 144 21.5V39L109 4ZM109 144H126.5C131.141 144 135.592 142.156 138.874 138.874C142.156 135.592 144 131.141 144 126.5V109L109 144ZM47.75 56.5H47.8375H47.75ZM100.25 56.5H100.337H100.25Z" stroke="#065B82" stroke-width="7" stroke-linecap="round" stroke-linejoin="round"/>
</svg>
