<svg width="62" height="65" viewBox="0 0 62 65" fill="none" xmlns="http://www.w3.org/2000/svg">
<path d="M59.9773 34.0131C61.2793 32.2724 62 30.1398 62 27.9209C62 24.4004 60.0548 21.0681 56.9238 19.2098C56.1177 18.7315 55.2 18.4797 54.2655 18.4806H35.681L36.146 8.84439C36.2545 6.51569 35.4408 4.30461 33.8598 2.61886C33.0839 1.78796 32.1478 1.12687 31.1094 0.676439C30.071 0.226008 28.9523 -0.00419489 27.8225 5.78658e-05C23.7925 5.78658e-05 20.2275 2.74431 19.158 6.67251L12.5007 31.0571H2.48C1.10825 31.0571 0 32.1784 0 33.5662V62.1064C0 63.4942 1.10825 64.6154 2.48 64.6154H49.0807C49.7938 64.6154 50.4912 64.4743 51.1345 64.192C54.8235 62.6003 57.2027 58.9544 57.2027 54.9086C57.2027 53.9207 57.0633 52.9484 56.7843 52.0075C58.0863 50.2669 58.807 48.1342 58.807 45.9153C58.807 44.9274 58.6675 43.9551 58.3885 43.0142C59.6905 41.2736 60.4113 39.1409 60.4113 36.922C60.3958 35.9341 60.2563 34.954 59.9773 34.0131ZM5.58 58.9701V36.7025H11.8575V58.9701H5.58ZM54.901 31.2924L53.2038 32.7821L54.281 34.7736C54.6359 35.4297 54.8199 36.1663 54.8158 36.9142C54.8158 38.2079 54.2578 39.4389 53.2968 40.2857L51.5995 41.7754L52.6768 43.7669C53.0317 44.423 53.2157 45.1596 53.2115 45.9075C53.2115 47.2012 52.6535 48.4322 51.6925 49.279L49.9952 50.7687L51.0725 52.7602C51.4274 53.4163 51.6114 54.1529 51.6073 54.9008C51.6073 56.6571 50.5842 58.2409 49.0033 58.9622H16.8175V36.4515L24.5287 8.18577C24.7276 7.46129 25.1544 6.82212 25.7446 6.36512C26.3348 5.90812 27.0561 5.6582 27.7993 5.65321C28.3883 5.65321 28.9695 5.82571 29.4345 6.17854C30.2017 6.75876 30.6125 7.63692 30.566 8.56996L29.822 24.1259H54.188C55.5675 24.9806 56.42 26.4233 56.42 27.9209C56.42 29.2146 55.862 30.4377 54.901 31.2924Z" fill="#065B82"/>
</svg>
