<svg width="60" height="60" viewBox="0 0 60 60" fill="none" xmlns="http://www.w3.org/2000/svg">
<path d="M30 1.2002C14.094 1.2002 1.19995 14.0942 1.19995 30.0002C1.19995 45.9062 14.094 58.8002 30 58.8002C45.9059 58.8002 58.7999 45.9062 58.7999 30.0002C58.7999 14.0942 45.9059 1.2002 30 1.2002ZM41.076 33.6932C41.076 33.6932 43.6229 36.2072 44.25 37.3742C44.2679 37.3982 44.2769 37.4222 44.2829 37.4342C44.5379 37.8632 44.5979 38.1962 44.472 38.4452C44.262 38.8592 43.542 39.0632 43.2959 39.0812H38.7959C38.484 39.0812 37.8299 39.0002 37.0379 38.4542C36.4289 38.0282 35.8289 37.3292 35.2439 36.6482C34.3709 35.6342 33.615 34.7582 32.853 34.7582C32.7562 34.758 32.66 34.7732 32.5679 34.8032C31.9919 34.9892 31.254 35.8112 31.254 38.0012C31.254 38.6852 30.714 39.0782 30.333 39.0782H28.2719C27.57 39.0782 23.9129 38.8322 20.6729 35.4152C16.7069 31.2302 13.1369 22.8362 13.1069 22.7582C12.8819 22.2152 13.3469 21.9242 13.8539 21.9242H18.3989C19.0049 21.9242 19.2029 22.2932 19.341 22.6202C19.5029 23.0012 20.097 24.5162 21.0719 26.2202C22.653 28.9982 23.622 30.1262 24.399 30.1262C24.5446 30.1245 24.6877 30.0874 24.816 30.0182C25.83 29.4542 25.6409 25.8392 25.5959 25.0892C25.5959 24.9482 25.5929 23.4722 25.0739 22.7642C24.7019 22.2512 24.0689 22.0562 23.6849 21.9842C23.8404 21.7697 24.0451 21.5958 24.2819 21.4772C24.9779 21.1292 26.232 21.0782 27.477 21.0782H28.17C29.52 21.0962 29.868 21.1832 30.357 21.3062C31.347 21.5432 31.368 22.1822 31.281 24.3692C31.254 24.9902 31.227 25.6922 31.227 26.5202C31.227 26.7002 31.218 26.8922 31.218 27.0962C31.188 28.2092 31.1519 29.4722 31.938 29.9912C32.0405 30.0555 32.1589 30.0898 32.28 30.0902C32.5529 30.0902 33.375 30.0902 35.6009 26.2712C36.2875 25.042 36.884 23.7646 37.3859 22.4492C37.431 22.3712 37.563 22.1312 37.7189 22.0382C37.8341 21.9795 37.9617 21.9496 38.0909 21.9512H43.4339C44.0159 21.9512 44.4149 22.0382 44.4899 22.2632C44.6219 22.6202 44.466 23.7092 42.0269 27.0122L40.938 28.4492C38.7269 31.3472 38.727 31.4942 41.076 33.6932Z" fill="#065B82"/>
</svg>
