<svg width="166" height="157" viewBox="0 0 166 157" fill="none" xmlns="http://www.w3.org/2000/svg">
<path d="M39.25 153H126.75H39.25ZM30.5 30.5L83 21.75L135.5 30.5H30.5ZM83 4.25V153V4.25ZM56.75 83L30.5 30.5L4.25 83C4.25 89.9619 7.01562 96.6387 11.9384 101.562C16.8613 106.484 23.5381 109.25 30.5 109.25C37.4619 109.25 44.1387 106.484 49.0616 101.562C53.9844 96.6387 56.75 89.9619 56.75 83ZM161.75 83L135.5 30.5L109.25 83C109.25 89.9619 112.016 96.6387 116.938 101.562C121.861 106.484 128.538 109.25 135.5 109.25C142.462 109.25 149.139 106.484 154.062 101.562C158.984 96.6387 161.75 89.9619 161.75 83Z" stroke="#065B82" stroke-width="7" stroke-linecap="round" stroke-linejoin="round"/>
</svg>
